# xmcd CD database file
#
# Track frame offsets:
#	150
#	14421
#	29841
#	47246
#	63765
#	84199
#	104462
#	120148
#	138308
#	152489
#	170103
#	185415
#
# Disc length: 2665 seconds
#
# Revision: 0
# Processed by: cddbd v1.5.2PL0 Copyright (c) Steve Scherf et al.
# Submitted via: CDex 1.51
#
DISCID=960a670c
DTITLE=Laura Bell Bundy - Achin' and Shakin'
DYEAR=2010
DGENRE=Country
TTITLE0=Drop On By
TTITLE1=Curse The Bed
TTITLE2=Cigarette
TTITLE3=Please
TTITLE4=Homecoming Queen
TTITLE5=When It All Goes South
TTITLE6=Giddy On Up
TTITLE7=I'm No Good (For Ya Baby)
TTITLE8=Rebound
TTITLE9=Boyfriend?
TTITLE10=If You Want My Love
TTITLE11=Everybody
EXTD=YEAR: 2010
EXTT0=
EXTT1=
EXTT2=
EXTT3=
EXTT4=
EXTT5=
EXTT6=
EXTT7=
EXTT8=
EXTT9=
EXTT10=
EXTT11=
PLAYORDER=
